PathFileType	4	(X/Y/Z)	C:/Users/beibeiliu/ov580/test_trc/User3\sequence.26_training_dense_left.trc
DataRate	CameraRate	NumFrames	NumMarkers	Units	OrigDataRate	OrigDataStartFrame	OrigNumFrames
120	120	17	19	mm	120	53	105
Frame#	Time	ThumbCMC			ThumbMCP			ThumbIP			ThumbTip			IndexMCP			IndexPIP			IndexTip			MiddleMCP			MiddlePIP			MiddleTip			RingMCP			RingPIP			RingTip			PinkyMCP			PinkyPIP			PinkyTip			BackHand1			BackHand2			BackHand3	
		X0	Y0	Z0	X1	Y1	Z1	X2	Y2	Z2	X3	Y3	Z3	X4	Y4	Z4	X5	Y5	Z5	X6	Y6	Z6	X7	Y7	Z7	X8	Y8	Z8	X9	Y9	Z9	X10	Y10	Z10	X11	Y11	Z11	X12	Y12	Z12	X13	Y13	Z13	X14	Y14	Z14	X15	Y15	Z15	X16	Y16	Z16	X17	Y17	Z17	X18	Y18	Z18	
52	0.433333	-43.1559	-17.5766	54.591	-28.4381	-32.4782	36.2801	-12.2913	-44.6239	5.62948	-8.66829	-54.7633	-12.2702	-42.1581	3.89064	-21.0712	-39.6543	-3.19655	-48.8085	-44.0694	-16.5508	-74.4033	-67.699	4.30674	-32.8419	-72.8488	-18.2257	-51.0172	-88.7961	-54.2422	-43.7263	-92.1968	-0.686962	-16.579	-100.109	-32.3109	-18.1726	-102.308	-46.4532	12.6293	-109.5	-1.34061	-5.75616	-108.332	-29.2141	3.32606	-98.8898	-33.5423	32.746	-78.7252	28.7655	27.5673	-84.9479	31.5742	62.482	-49.596	15.8927	43.8962	
53	0.441667	-40.2727	-21.0066	57.116	-23.6873	-32.7587	31.1927	-10.8339	-44.3427	5.82879	-7.85752	-53.0725	-11.2649	-43.001	2.36303	-20.5476	-41.0202	-6.44769	-49.9968	-44.353	-19.5256	-71.2859	-65.3214	3.36235	-31.4011	-75.2291	-15.4755	-54.5409	-90.8049	-45.9218	-62.0123	-89.2476	-3.44677	-17.8076	-103.197	-29.4208	-21.355	-105.829	-52.9293	-0.934938	-107.78	-0.323187	-5.27219	-109.536	-29.1698	-1.71046	-102.618	-42.6115	22.6513	-80.965	30.5277	33.7704	-81.8566	28.3657	62.7054	-48.1762	13.3887	44.386	
54	0.45	-38.2212	-21.476	51.2096	-25.23	-33.2344	31.6693	-10.8534	-44.2572	5.43802	-6.52859	-53.1937	-12.3215	-44.8476	1.02456	-23.022	-43.4802	-8.7025	-54.3444	-48.1194	-21.9352	-73.0345	-71.8254	6.04945	-29.913	-77.4138	-14.0306	-55.3198	-90.4239	-41.0918	-71.2785	-95.1128	0.545997	-17.0153	-108.48	-27.2831	-26.9874	-111.033	-53.336	-14.2388	-111.386	0.339416	-7.27304	-115.841	-25.6352	-9.63552	-108.658	-45.3969	9.28709	-80.8275	28.6429	32.3744	-83.7856	24.6266	64.3653	-49.7229	9.93547	44.8038	
55	0.458333	-41.1324	-23.2893	50.2915	-23.5623	-35.5359	27.5054	-13.8563	-44.8494	3.77811	-1.37654	-56.2146	-14.0863	-46.9968	-1.0951	-23.4956	-46.4944	-11.6802	-53.5272	-51.9666	-26.5139	-75.631	-70.2761	3.02182	-31.3555	-76.9157	-14.3822	-57.2272	-92.0868	-35.7835	-73.1206	-91.0419	4.6603	-19.3156	-108.366	-19.7389	-38.9523	-116.538	-45.8189	-36.6064	-113.241	9.20068	-8.44984	-120.011	-11.2923	-22.1911	-122.967	-43.0715	-12.4682	-78.2648	24.1579	32.0796	-78.733	22.6467	60.5508	-49.6731	10.1414	45.7487	
56	0.466667	-40.522	-25.3557	45.8877	-23.5225	-37.8003	25.939	-10.8599	-48.2601	1.52505	-3.14394	-58.7838	-13.7534	-47.3993	-6.66641	-29.7044	-47.6423	-18.4961	-55.6628	-53.1608	-32.5343	-76.3769	-73.3256	0.0232529	-36.4371	-83.2982	-16.8373	-59.9572	-98.9005	-39.8005	-77.7253	-92.4296	8.24442	-22.5394	-107.324	-6.57828	-48.626	-117.129	-30.302	-61.7534	-111.542	15.2081	-6.29376	-124.484	7.36942	-27.6187	-137.765	-17.9541	-39.9118	-82.2465	25.5066	25.8113	-81.5877	23.6964	60.4353	-50.6719	5.35962	37.9281	
57	0.475	-45.8902	-27.8454	46.5678	-29.8468	-39.4655	25.2934	-18.8662	-50.3618	-2.7262	-10.4344	-60.9138	-18.465	-51.9672	-11.7896	-35.2383	-55.0522	-20.9808	-60.0976	-60.3052	-36.4071	-81.6129	-78.0986	-0.67594	-38.981	-85.828	-14.3641	-59.6688	-102.427	-39.2854	-83.1469	-95.027	9.82392	-29.9287	-103.819	3.97708	-52.8605	-114.918	-7.50518	-71.9648	-114.967	18.5001	-7.87807	-129.456	19.0395	-30.1783	-142.342	13.8586	-48.846	-84.9527	21.4269	26.0066	-79.3966	20.0696	55.0894	-54.237	4.66493	37.1868	
58	0.483333	-44.922	-30.686	45.0458	-33.1021	-42.3307	22.2943	-21.1425	-54.1325	-0.466457	-13.608	-64.9598	-21.4813	-55.5508	-9.69281	-33.6803	-56.8652	-18.3711	-60.4508	-64.0507	-33.5157	-86.9116	-80.6407	2.21713	-37.6736	-88.8818	-12.1418	-66.848	-100.642	-30.0728	-90.9692	-98.137	12.7211	-26.7056	-107.286	9.63505	-53.0111	-114.872	3.92779	-74.2405	-119.407	18.8243	-8.49008	-129.191	20.2825	-27.5916	-144.013	22.2649	-49.0488	-83.8662	19.1907	21.8102	-84.6483	19.1944	55.126	-57.6656	4.47645	33.7925	
59	0.491667	-46.8841	-32.1041	44.2743	-36.0106	-45.1313	20.4434	-25.9487	-57.5619	-3.27653	-22.0096	-68.229	-25.1184	-54.3851	-6.97142	-37.002	-52.944	-15.4327	-64.5242	-60.8402	-23.2386	-84.6851	-80.7758	10.7671	-39.5719	-83.1186	4.7106	-65.251	-96.3379	-5.50854	-94.4513	-101.566	14.7514	-29.2647	-108.313	11.6802	-54.562	-120.697	8.129	-79.3166	-123.012	15.2194	-7.39634	-138.692	14.8376	-30.7458	-149.26	11.0602	-46.3754	-90.762	21.348	27.2828	-88.2112	20.4257	54.8767	-56.8107	2.76672	33.4739	
60	0.5	-47.2408	-30.8445	43.7574	-38.1872	-44.3073	20.0644	-27.4234	-58.9375	-8.28952	-26.5854	-67.7027	-26.1625	-57.322	-1.20811	-29.0095	-53.768	-2.96766	-59.2866	-58.8986	-12.9584	-88.4321	-76.8606	16.0884	-34.484	-81.6577	18.0409	-60.3513	-86.0711	14.5327	-96.8797	-103.793	15.5366	-26.364	-114.572	12.7397	-52.0244	-123.109	2.61139	-74.466	-126.031	9.7438	-9.30632	-142.372	1.42717	-26.7392	-154.794	-11.0892	-42.6597	-91.135	20.2212	23.7662	-88.9429	17.377	57.6553	-64.3249	5.05624	35.3275	
61	0.508333	-47.2806	-28.8617	43.1039	-36.9922	-43.6184	20.3082	-27.9589	-56.6845	-4.62814	-24.988	-66.8882	-27.6312	-59.9298	6.42837	-25.5225	-53.2643	7.80312	-56.4366	-51.2568	-1.25327	-83.2585	-80.8714	22.3254	-31.0653	-85.0954	28.121	-59.0769	-88.3932	28.5116	-91.0695	-109.35	15.0957	-22.3719	-116.765	8.17893	-50.7225	-131.019	-11.325	-69.791	-132.553	3.01381	-9.17189	-140.594	-15.8652	-25.0851	-142.085	-39.4753	-31.2942	-97.068	20.4699	26.1675	-93.9512	16.6588	56.8568	-60.9564	6.81786	39.1991	
62	0.516667	-48.3304	-25.867	44.8569	-37.1947	-39.2236	17.3016	-30.0125	-50.6664	-4.00795	-27.8995	-59.7508	-29.7737	-58.6965	12.3457	-25.6449	-51.7358	15.7663	-51.741	-53.0727	10.0248	-82.2399	-83.9521	24.8388	-26.9428	-86.1674	31.595	-58.2497	-95.2767	32.7492	-87.3771	-110.88	13.2999	-24.2543	-117.174	2.53683	-49.679	-128.37	-27.5198	-61.733	-130.198	-1.97921	-8.58018	-135.634	-26.206	-20.6936	-131.578	-54.2472	-18.0721	-96.7423	20.8681	32.2537	-94.8834	15.4287	59.0679	-65.6228	8.9242	39.828	
63	0.525	-50.7672	-22.6152	43.403	-37.8999	-35.1973	18.2817	-30.6622	-45.1397	-6.87588	-31.1875	-54.0804	-31.3579	-60.4618	16.022	-23.6884	-53.8156	21.6581	-53.4184	-52.1546	16.661	-81.1754	-88.6614	28.7031	-27.4809	-90.6935	33.6511	-55.3076	-97.6095	27.4905	-89.4403	-110.716	13.0504	-21.871	-118.534	-3.6961	-49.5585	-124.999	-34.4607	-51.5122	-127.87	-2.24009	-8.37908	-132.717	-30.1592	-18.0023	-118.316	-54.2118	-7.59596	-99.1646	20.5274	30.4818	-102.838	18.0097	61.8564	-67.2365	12.8503	38.4892	
64	0.533333	-53.7657	-15.9195	41.3022	-38.0785	-29.935	19.5264	-27.3994	-37.9131	-12.4548	-33.3731	-45.5296	-32.7756	-63.1333	25.0677	-24.1503	-56.0245	30.5754	-54.0677	-53.1328	23.0391	-77.7921	-88.7137	34.3343	-26.0154	-96.0835	37.6242	-58.5539	-104.161	21.6999	-88.9091	-114.826	16.2809	-25.6975	-119.59	-3.56543	-48.7632	-116.015	-36.7643	-42.1238	-127.016	-3.66449	-11.4174	-126.683	-31.9375	-18.0582	-115.667	-50.3986	1.66425	-104.895	23.4406	29.9396	-105.118	16.7958	59.4871	-71.1308	14.3841	39.3841	
65	0.541667	-52.8333	-12.3653	41.4228	-36.7441	-21.748	13.7825	-28.0484	-31.0829	-8.06099	-32.3264	-36.5032	-34.5285	-63.4796	28.793	-18.3627	-59.5081	36.2487	-52.5053	-58.6647	22.8484	-80.3389	-89.8307	38.646	-25.4732	-99.4614	39.071	-57.6928	-105.567	15.6144	-81.2943	-109.927	17.0916	-27.6743	-115.573	-6.32456	-47.8162	-111.049	-34.657	-32.88	-125.546	-5.04835	-14.9652	-123.975	-32.1153	-15.379	-104.648	-42.7754	4.98761	-106.463	23.5785	31.2399	-109.451	20.5506	57.2659	-75.2991	19.5632	41.4967	
66	0.55	-50.7489	-12.3202	41.5097	-33.64	-20.7753	17.6627	-25.8634	-27.1058	-10.9567	-31.8351	-33.6102	-37.1374	-63.3356	29.9166	-17.6984	-59.8174	37.194	-51.5011	-60.718	16.1091	-76.0491	-92.7365	39.4976	-25.536	-94.845	39.4766	-56.465	-101.473	2.73033	-75.3008	-111.393	16.5483	-27.897	-117.122	-7.63867	-46.4011	-106.792	-32.3062	-29.1056	-127.446	-2.72457	-12.699	-119.354	-30.2373	-16.1928	-108.346	-39.2649	10.6141	-105.936	24.4903	31.316	-109.373	17.0461	56.8434	-74.3917	19.598	42.3497	
67	0.558333	-49.6704	-12.0259	40.7189	-34.8682	-21.276	16.6442	-24.9148	-26.8651	-13.3576	-40.0056	-31.5009	-37.8137	-68.3812	30.2141	-19.7679	-64.2798	34.5226	-52.4859	-65.7212	8.92612	-72.42	-94.2073	36.4336	-25.9119	-99.1451	32.1658	-59.1344	-102.315	-3.54935	-68.3183	-112.204	15.4229	-27.4589	-114.867	-12.2192	-43.7758	-104.434	-32.112	-21.4913	-127.856	-5.96061	-16.046	-119.874	-32.5465	-14.1435	-105.557	-33.3619	12.9016	-107.549	25.2635	30.661	-107.863	15.8783	55.7749	-74.6766	18.2597	40.8349	
68	0.566667	-50.2634	-14.5842	39.9414	-34.7275	-23.4525	14.0038	-30.5172	-27.9353	-12.9004	-42.0882	-33.7891	-39.9503	-69.5734	30.6855	-24.4359	-71.8145	28.2643	-58.9311	-77.3515	0.0340816	-67.5282	-95.2302	36.337	-27.9507	-101.671	28.7448	-58.5339	-100.79	-9.89046	-62.6834	-111.653	15.314	-26.1658	-116.941	-11.9269	-42.9051	-110.542	-33.1298	-19.4786	-131.972	-2.00569	-14.9348	-122.208	-29.1714	-17.4273	-107.848	-32.9302	7.64443	-106.578	25.3106	27.2511	-109.344	17.7868	57.7882	-75.9748	16.8328	38.6281	
